<svg xmlns="http://www.w3.org/2000/svg" viewBox="0 0 100 100" fill="none">

  <!-- Fundo escuro navy -->
  <rect width="100" height="100" fill="#070B19"/>

  <!-- Coroa de louro - lado esquerdo -->
  <path d="M 28,48 C 26,64 36,76 50,77" stroke="#B0924F" stroke-width="2" stroke-linecap="round"/>
  <path d="M 28,48 C 23,46 25,41 28,48 C 31,43 33,46 28,48" stroke="#B0924F" stroke-width="1.5" stroke-linecap="round" stroke-linejoin="round"/>
  <path d="M 29,55 C 24,54 25,49 29,55 C 32,51 34,54 29,55" stroke="#B0924F" stroke-width="1.5" stroke-linecap="round" stroke-linejoin="round"/>
  <path d="M 32,62 C 27,63 27,58 32,62 C 34,58 37,61 32,62" stroke="#B0924F" stroke-width="1.5" stroke-linecap="round" stroke-linejoin="round"/>
  <path d="M 37,69 C 32,71 31,66 37,69 C 39,65 42,68 37,69" stroke="#B0924F" stroke-width="1.5" stroke-linecap="round" stroke-linejoin="round"/>
  <path d="M 44,74 C 40,77 38,72 44,74 C 45,70 48,73 44,74" stroke="#B0924F" stroke-width="1.5" stroke-linecap="round" stroke-linejoin="round"/>

  <!-- Coroa de louro - lado direito -->
  <path d="M 72,48 C 74,64 64,76 50,77" stroke="#B0924F" stroke-width="2" stroke-linecap="round"/>
  <path d="M 72,48 C 77,46 75,41 72,48 C 69,43 67,46 72,48" stroke="#B0924F" stroke-width="1.5" stroke-linecap="round" stroke-linejoin="round"/>
  <path d="M 71,55 C 76,54 75,49 71,55 C 68,51 66,54 71,55" stroke="#B0924F" stroke-width="1.5" stroke-linecap="round" stroke-linejoin="round"/>
  <path d="M 68,62 C 73,63 73,58 68,62 C 66,58 63,61 68,62" stroke="#B0924F" stroke-width="1.5" stroke-linecap="round" stroke-linejoin="round"/>
  <path d="M 63,69 C 68,71 69,66 63,69 C 61,65 58,68 63,69" stroke="#B0924F" stroke-width="1.5" stroke-linecap="round" stroke-linejoin="round"/>
  <path d="M 56,74 C 60,77 62,72 56,74 C 55,70 52,73 56,74" stroke="#B0924F" stroke-width="1.5" stroke-linecap="round" stroke-linejoin="round"/>

  <!-- Escudo em U -->
  <path
    d="M 33,26 L 33,56 C 33,68 41,77 50,77 C 59,77 67,68 67,56 L 67,26"
    stroke="#B0924F"
    stroke-width="3.2"
    stroke-linecap="round"
    stroke-linejoin="round"
  />

  <!-- Espada - crossguard -->
  <path d="M 40,22 L 60,22" stroke="#B0924F" stroke-width="3" stroke-linecap="round"/>
  <!-- Espada - cabo -->
  <path d="M 50,22 L 50,12" stroke="#B0924F" stroke-width="3" stroke-linecap="round"/>
  <!-- Espada - pomo -->
  <path d="M 45,12 L 55,12" stroke="#B0924F" stroke-width="3" stroke-linecap="round"/>
  <!-- Espada - lâmina -->
  <path d="M 50,22 L 50,83 L 46,77 M 50,83 L 54,77" stroke="#B0924F" stroke-width="2.8" stroke-linecap="round" stroke-linejoin="round"/>

  <!-- Monograma D -->
  <path d="M 41,31 L 41,63" stroke="#B0924F" stroke-width="3.2" stroke-linecap="round"/>
  <path
    d="M 41,31 L 50,31 C 62,31 62,63 50,63 L 41,63"
    stroke="#B0924F"
    stroke-width="3.2"
    stroke-linecap="round"
    stroke-linejoin="round"
  />

</svg>
